<svg width="1448" height="1600" viewBox="0 0 1448 1600" fill="none" xmlns="http://www.w3.org/2000/svg">
<g clip-path="url(#clip0_649_33)">
<g opacity="0.3" filter="url(#filter0_f_649_33)">
<path d="M198.939 269.367C264.05 252.25 300.772 207.845 280.96 170.187C261.148 132.528 192.304 115.876 127.193 132.994C62.0819 150.111 25.3596 194.516 45.1716 232.174C64.9835 269.833 133.827 286.485 198.939 269.367Z" fill="#5F5FF6"/>
</g>
<g opacity="0.3" filter="url(#filter1_f_649_33)">
<path d="M1237.94 465.67C1289.76 443.51 1318.98 386.025 1303.22 337.273C1287.45 288.521 1232.65 266.964 1180.83 289.124C1129.01 311.284 1099.78 368.769 1115.55 417.521C1131.32 466.273 1186.11 487.83 1237.94 465.67Z" fill="#5F5FF6"/>
</g>
<g opacity="0.3" filter="url(#filter2_f_649_33)">
<path d="M572.192 1047.54C656.033 1011.69 703.319 918.687 677.808 839.814C652.297 760.94 563.649 726.063 479.808 761.915C395.967 797.766 348.681 890.769 374.192 969.643C399.703 1048.52 488.351 1083.39 572.192 1047.54Z" fill="#5F5FF6"/>
</g>
<g opacity="0.3" filter="url(#filter3_f_649_33)">
<path d="M1202.19 1511.54C1286.03 1475.69 1333.32 1382.69 1307.81 1303.81C1282.3 1224.94 1193.65 1190.06 1109.81 1225.91C1025.97 1261.77 978.681 1354.77 1004.19 1433.64C1029.7 1512.52 1118.35 1547.39 1202.19 1511.54Z" fill="#5F5FF6"/>
</g>
<g opacity="0.3" filter="url(#filter4_f_649_33)">
<path d="M209.192 1686.54C293.033 1650.69 340.319 1557.69 314.808 1478.81C289.297 1399.94 200.649 1365.06 116.808 1400.91C32.9667 1436.77 -14.3191 1529.77 11.192 1608.64C36.7031 1687.52 125.351 1722.39 209.192 1686.54Z" fill="#5F5FF6"/>
</g>
</g>
<defs>
<filter id="filter0_f_649_33" x="-160.198" y="-73.738" width="646.527" height="549.837" filterUnits="userSpaceOnUse" color-interpolation-filters="sRGB">
<feFlood flood-opacity="0" result="BackgroundImageFix"/>
<feBlend mode="normal" in="SourceGraphic" in2="BackgroundImageFix" result="shape"/>
<feGaussianBlur stdDeviation="100" result="effect1_foregroundBlur_649_33"/>
</filter>
<filter id="filter1_f_649_33" x="911.277" y="80.4089" width="596.213" height="593.976" filterUnits="userSpaceOnUse" color-interpolation-filters="sRGB">
<feFlood flood-opacity="0" result="BackgroundImageFix"/>
<feBlend mode="normal" in="SourceGraphic" in2="BackgroundImageFix" result="shape"/>
<feGaussianBlur stdDeviation="100" result="effect1_foregroundBlur_649_33"/>
</filter>
<filter id="filter2_f_649_33" x="167.278" y="547.815" width="717.443" height="713.826" filterUnits="userSpaceOnUse" color-interpolation-filters="sRGB">
<feFlood flood-opacity="0" result="BackgroundImageFix"/>
<feBlend mode="normal" in="SourceGraphic" in2="BackgroundImageFix" result="shape"/>
<feGaussianBlur stdDeviation="100" result="effect1_foregroundBlur_649_33"/>
</filter>
<filter id="filter3_f_649_33" x="797.278" y="1011.82" width="717.443" height="713.826" filterUnits="userSpaceOnUse" color-interpolation-filters="sRGB">
<feFlood flood-opacity="0" result="BackgroundImageFix"/>
<feBlend mode="normal" in="SourceGraphic" in2="BackgroundImageFix" result="shape"/>
<feGaussianBlur stdDeviation="100" result="effect1_foregroundBlur_649_33"/>
</filter>
<filter id="filter4_f_649_33" x="-195.722" y="1186.82" width="717.443" height="713.826" filterUnits="userSpaceOnUse" color-interpolation-filters="sRGB">
<feFlood flood-opacity="0" result="BackgroundImageFix"/>
<feBlend mode="normal" in="SourceGraphic" in2="BackgroundImageFix" result="shape"/>
<feGaussianBlur stdDeviation="100" result="effect1_foregroundBlur_649_33"/>
</filter>
<clipPath id="clip0_649_33">
<rect width="1448" height="1600" fill="white"/>
</clipPath>
</defs>
</svg>
